<?xml version="1.0" encoding="UTF-8" standalone="no"?>
<!-- Created with Inkscape (http://www.inkscape.org/) -->

<svg
   xmlns:dc="http://purl.org/dc/elements/1.1/"
   xmlns:cc="http://creativecommons.org/ns#"
   xmlns:rdf="http://www.w3.org/1999/02/22-rdf-syntax-ns#"
   xmlns:svg="http://www.w3.org/2000/svg"
   xmlns="http://www.w3.org/2000/svg"
   xmlns:sodipodi="http://sodipodi.sourceforge.net/DTD/sodipodi-0.dtd"
   xmlns:inkscape="http://www.inkscape.org/namespaces/inkscape"
   width="930"
   height="210"
   viewBox="0 0 930.0002 210.00005"
   id="svg4135"
   version="1.1"
   inkscape:version="0.91 r13725"
   sodipodi:docname="bendai_logotipo_colorido_.svg">
  <defs
     id="defs4137" />
  <sodipodi:namedview
     id="base"
     pagecolor="#ffffff"
     bordercolor="#666666"
     borderopacity="1.0"
     inkscape:pageopacity="0.0"
     inkscape:pageshadow="2"
     inkscape:zoom="0.49497475"
     inkscape:cx="63.498037"
     inkscape:cy="180.5512"
     inkscape:document-units="px"
     inkscape:current-layer="layer1"
     showgrid="false"
     units="px"
     inkscape:showpageshadow="false"
     inkscape:window-width="1855"
     inkscape:window-height="1056"
     inkscape:window-x="65"
     inkscape:window-y="24"
     inkscape:window-maximized="1" />
  <metadata
     id="metadata4140">
    <rdf:RDF>
      <cc:Work
         rdf:about="">
        <dc:format>image/svg+xml</dc:format>
        <dc:type
           rdf:resource="http://purl.org/dc/dcmitype/StillImage" />
        <dc:title></dc:title>
      </cc:Work>
    </rdf:RDF>
  </metadata>
  <g
     inkscape:label="Camada 1"
     inkscape:groupmode="layer"
     id="layer1"
     transform="translate(0,-842.3595)">
    <rect
       style="opacity:0.95999995;fill:#008c00;fill-opacity:1;stroke:none;stroke-width:3.07230139;stroke-linejoin:round;stroke-miterlimit:4;stroke-dasharray:none;stroke-opacity:1"
       id="rect4223-67-5-0"
       width="191.85948"
       height="191.85948"
       x="10.000002"
       y="851.91113"
       inkscape:export-xdpi="100"
       inkscape:export-ydpi="100" />
    <path
       style="font-style:normal;font-variant:normal;font-weight:bold;font-stretch:normal;font-size:562.5px;line-height:125%;font-family:Comfortaa;-inkscape-font-specification:'Comfortaa, Bold';text-align:start;letter-spacing:0px;word-spacing:0px;writing-mode:lr-tb;text-anchor:start;fill:#ffffff;fill-opacity:1;stroke:none;stroke-width:1px;stroke-linecap:butt;stroke-linejoin:miter;stroke-opacity:1"
       d="m 58.527962,864.4906 c -3.118536,0 -5.717411,1.03967 -7.796438,3.11872 -2.009722,2.0097 -3.014494,4.57367 -3.014494,7.6922 l 0,97.29839 c 0,8.54132 1.603914,16.41746 4.811512,23.6288 0.188681,0.4242 0.382718,0.84594 0.582496,1.26555 2.597186,5.45504 6.132385,10.52124 10.605434,15.19834 0.344068,0.3598 0.693029,0.7167 1.048198,1.0719 1.25e-4,10e-5 -1.25e-4,0 0,0 0.355165,0.3552 0.712824,0.7041 1.07259,1.0482 4.317226,4.1289 8.966001,7.4591 13.945919,9.9897 0.414996,0.2109 0.831885,0.416 1.251484,0.6158 7.552869,3.5962 15.85108,5.394 24.895087,5.394 0.4981,0 0.99425,-0.01 1.48802,-0.017 14.81305,-0.333 27.67701,-5.6604 38.59189,-15.9825 0.36383,-0.3441 0.72566,-0.693 1.08516,-1.0481 0.35517,-0.3509 0.70413,-0.7044 1.0482,-1.0601 10.6661,-11.0272 15.99944,-24.39568 15.99944,-40.10534 l 0,-97.29836 c 0,-3.11856 -1.07389,-5.6825 -3.22222,-7.69224 -2.07902,-2.07901 -4.64371,-3.11872 -7.69294,-3.11872 -3.11855,0 -5.71741,1.03971 -7.79644,3.11872 -2.00973,2.00974 -3.0145,4.57368 -3.0145,7.69224 l 0,51.87174 c -4.83268,-3.91063 -10.00883,-6.92174 -15.52708,-9.03828 -0.002,0 -0.005,0 -0.007,-0.004 -10e-4,0 -0.002,0 -0.004,0 -0.43214,-0.16562 -0.86615,-0.32655 -1.30248,-0.48119 -0.85733,-0.30388 -1.72255,-0.58725 -2.59611,-0.84862 -0.10607,-0.0318 -0.21302,-0.0612 -0.31933,-0.0924 -0.30618,-0.0896 -0.61289,-0.178 -0.92106,-0.2624 -0.15948,-0.0438 -0.31972,-0.0855 -0.47975,-0.12789 -0.26723,-0.0707 -0.5348,-0.14022 -0.80351,-0.20699 -0.17892,-0.0445 -0.35855,-0.0873 -0.53815,-0.13012 -0.23965,-0.057 -0.47991,-0.11233 -0.72073,-0.16629 -0.19411,-0.0436 -0.38835,-0.0871 -0.58324,-0.12861 -0.24144,-0.0514 -0.48402,-0.10022 -0.72664,-0.14859 -0.19378,-0.0387 -0.38721,-0.0779 -0.58175,-0.11461 -0.28408,-0.0535 -0.5696,-0.10286 -0.85527,-0.15225 -0.14581,-0.0254 -0.29064,-0.0528 -0.43687,-0.0769 -0.42853,-0.0707 -0.85859,-0.13671 -1.29066,-0.19813 -0.15765,-0.0223 -0.31644,-0.0416 -0.47457,-0.0629 -0.28776,-0.0385 -0.57555,-0.0772 -0.86488,-0.11161 -0.18469,-0.0219 -0.37054,-0.0411 -0.55588,-0.0614 -0.26413,-0.0291 -0.52849,-0.0573 -0.79391,-0.0828 -0.19148,-0.0185 -0.38368,-0.0352 -0.57584,-0.0517 -0.27383,-0.0238 -0.54829,-0.0463 -0.82349,-0.0665 -0.17739,-0.0128 -0.35499,-0.0246 -0.53297,-0.0363 -0.27593,-0.0178 -0.55282,-0.0337 -0.83013,-0.0481 -0.19401,-0.01 -0.38779,-0.0197 -0.58249,-0.028 -0.30438,-0.0128 -0.60987,-0.0223 -0.91589,-0.031 -0.14547,-0.005 -0.29028,-0.009 -0.43613,-0.0125 -0.4673,-0.01 -0.93635,-0.0163 -1.40745,-0.0163 -0.46689,0 -0.93134,0.005 -1.39415,0.0148 -0.17233,0.004 -0.34345,0.0106 -0.51523,0.0155 -0.30469,0.009 -0.60927,0.0174 -0.91218,0.0303 -0.16133,0.007 -0.32187,0.0155 -0.48271,0.0234 -0.3203,0.0159 -0.63971,0.0341 -0.95801,0.0547 -0.14315,0.009 -0.28598,0.0193 -0.42874,0.0295 -0.31567,0.0227 -0.63029,0.0474 -0.94397,0.0747 -0.167,0.0143 -0.333986,0.0291 -0.500442,0.0451 -0.304927,0.0291 -0.608419,0.0611 -0.911452,0.0946 -0.144147,0.0159 -0.288699,0.031 -0.432433,0.0481 -0.421649,0.0496 -0.841639,0.10294 -1.259616,0.16115 -0.02163,0.004 -0.0434,0.006 -0.06503,0.009 -0.471961,0.0662 -0.941669,0.13784 -1.408937,0.21509 -0.439709,0.0727 -0.877278,0.15045 -1.312834,0.23287 -0.138004,0.0261 -0.274874,0.055 -0.41248,0.082 -0.293738,0.0578 -0.587077,0.11665 -0.878915,0.17891 -0.167012,0.0356 -0.333304,0.0731 -0.499708,0.11013 -0.268026,0.0598 -0.535631,0.12055 -0.802043,0.18406 -0.183675,0.0438 -0.367034,0.0883 -0.549974,0.13382 -0.224142,0.0559 -0.447466,0.11366 -0.670459,0.17221 -0.223677,0.0586 -0.447173,0.11759 -0.669723,0.1789 -0.155463,0.043 -0.310063,0.088 -0.464963,0.13232 -0.281332,0.0802 -0.562431,0.16085 -0.841962,0.2454 -0.0068,0.004 -0.01329,0.004 -0.01997,0.006 -6.939938,2.10208 -13.323169,5.54625 -19.150686,10.33119 l 0,-51.8895 c 0,-3.11855 -1.074631,-5.6825 -3.222957,-7.69224 -2.079024,-2.07899 -4.642973,-3.1187 -7.69221,-3.1187 z m 47.401788,71.62269 c 3.47803,0 6.80864,0.45852 9.99188,1.37568 1.44693,0.41685 2.8637,0.92822 4.24972,1.53457 2.77203,1.21279 5.31385,2.6966 7.62568,4.45079 0.46236,0.35085 0.91544,0.71191 1.3594,1.08441 0.88792,0.74499 1.73895,1.53388 2.55323,2.36546 1.03951,1.03953 2.0077,2.13283 2.90509,3.28063 0.17948,0.22954 0.35622,0.46098 0.53002,0.69484 1.1e-4,1.8e-4 -1.2e-4,0 0,0 0.17366,0.23374 0.34501,0.46938 0.513,0.70745 1.0088,1.42946 1.91472,2.93703 2.71882,4.52247 0.268,0.52843 0.52499,1.06499 0.77025,1.61075 0.12263,0.27284 0.24232,0.54849 0.35926,0.82568 0.36383,0.8186 0.69345,1.64766 0.98906,2.48817 0.19707,0.56037 0.37878,1.12566 0.54553,1.69576 0.0834,0.28507 0.16297,0.57146 0.23877,0.85895 0.1516,0.57498 0.28824,1.15465 0.40953,1.73935 0.30318,1.46183 0.51167,2.95469 0.62536,4.4774 0.0228,0.30456 0.0418,0.60965 0.0569,0.91663 0.0303,0.61419 0.0451,1.23292 0.0451,1.85688 0,2.49483 -0.24228,4.92055 -0.72738,7.27678 -0.12128,0.58906 -0.25793,1.17377 -0.40953,1.75416 -0.0758,0.29018 -0.15539,0.57903 -0.23876,0.86709 -0.16675,0.57603 -0.34847,1.14753 -0.54554,1.71494 -0.29561,0.85112 -0.62523,1.69281 -0.98906,2.52439 -0.11694,0.27289 -0.23662,0.54361 -0.35926,0.8124 -0.24525,0.53762 -0.50225,1.06719 -0.77025,1.58857 -1.74199,3.38898 -3.96419,6.43465 -6.66693,9.13737 -2.85,2.91064 -6.15119,5.29144 -9.90318,7.14104 -0.536,0.2642 -1.08073,0.5173 -1.63513,0.7599 -4.15805,1.8191 -8.59066,2.7854 -13.29689,2.8992 -0.31375,0.01 -0.62853,0.011 -0.94471,0.011 -3.20542,0 -6.275143,-0.3789 -9.209808,-1.137 -0.293444,-0.076 -0.585222,-0.1553 -0.875963,-0.2387 -1.453692,-0.4169 -2.873307,-0.9282 -4.259326,-1.5346 -4.435251,-1.9405 -8.281908,-4.5395 -11.539047,-7.79669 -1.018001,-1.03966 -1.971369,-2.13339 -2.860746,-3.28133 -0.177856,-0.22959 -0.352865,-0.46098 -0.525577,-0.69489 -0.345543,-0.46794 -0.680371,-0.94433 -1.005325,-1.42961 -0.162424,-0.24256 -0.32246,-0.48717 -0.479748,-0.73405 -0.943681,-1.48131 -1.794707,-3.04048 -2.553226,-4.67773 -0.126418,-0.27284 -0.249802,-0.54773 -0.371083,-0.82492 -0.116948,-0.27723 -0.230397,-0.55522 -0.340039,-0.83457 -1.644538,-4.19056 -2.466736,-8.625 -2.466736,-13.30283 0,-0.31183 0.003,-0.62244 0.01036,-0.93211 0.102328,-4.33566 0.921484,-8.45953 2.456388,-12.37069 0.109642,-0.27935 0.223091,-0.55738 0.340039,-0.83457 0.121274,-0.2772 0.244665,-0.55235 0.371083,-0.82496 1.896299,-4.08901 4.371047,-7.65977 7.424614,-10.71335 0.814291,-0.83162 1.665316,-1.62047 2.553235,-2.36546 0.443959,-0.3725 0.897777,-0.7336 1.360142,-1.08441 2.311836,-1.75419 4.853648,-3.23804 7.625678,-4.45079 1.663011,-0.72758 3.374854,-1.31861 5.135289,-1.77335 0.293445,-0.0758 0.588677,-0.14839 0.884832,-0.2166 2.665384,-0.61396 5.440334,-0.92033 8.324974,-0.92033 z"
       id="text4165-1-7-7"
       inkscape:connector-curvature="0"
       inkscape:export-xdpi="100"
       inkscape:export-ydpi="100" />
    <text
       xml:space="preserve"
       style="font-style:normal;font-variant:normal;font-weight:bold;font-stretch:normal;font-size:212.89219666px;line-height:125%;font-family:Comfortaa;-inkscape-font-specification:'Comfortaa, Bold';text-align:start;letter-spacing:0px;word-spacing:0px;writing-mode:lr-tb;text-anchor:start;fill:#008c00;fill-opacity:1;stroke:none;stroke-width:1px;stroke-linecap:butt;stroke-linejoin:miter;stroke-opacity:1"
       x="226.94797"
       y="1030.8116"
       id="text4145-2-2-1"
       sodipodi:linespacing="125%"
       inkscape:export-xdpi="100"
       inkscape:export-ydpi="100"><tspan
         sodipodi:role="line"
         id="tspan4147-7-6-6"
         x="226.94797"
         y="1030.8116">bendai</tspan></text>
  </g>
</svg>
